<svg width="283" height="279" viewBox="0 0 283 279" fill="none" xmlns="http://www.w3.org/2000/svg">
    <path fill-rule="evenodd" clip-rule="evenodd"
        d="M105.747 181.349L66.7786 158.899L27.8098 181.349L27.8098 226.142L66.7786 248.591L105.747 226.142L105.747 181.349ZM59.1229 276.275L7.65571 246.626C2.91833 243.896 7.31574e-06 238.853 6.97656e-06 233.395L0 174.096C3.21604e-06 168.637 2.91835 163.594 7.65571 160.865L59.1229 131.215C63.8603 128.486 69.6969 128.486 74.4343 131.215L125.901 160.865C130.639 163.594 133.557 168.637 133.557 174.096L133.557 233.395C133.557 238.853 130.639 243.897 125.901 246.626L74.4343 276.275C69.6969 279.004 63.8602 279.004 59.1229 276.275Z"
        fill="#FFF9CC" />
    <path fill-rule="evenodd" clip-rule="evenodd"
        d="M255.115 181.348L216.146 158.899L177.177 181.348L177.177 226.141L216.146 248.591L255.115 226.141L255.115 181.348ZM208.49 276.275L157.023 246.625C152.286 243.896 149.367 238.852 149.367 233.394L149.367 174.095C149.367 168.637 152.286 163.593 157.023 160.864L208.49 131.215C213.227 128.486 219.064 128.486 223.801 131.215L275.269 160.864C280.006 163.593 282.924 168.637 282.924 174.095V233.394C282.924 238.852 280.006 243.896 275.269 246.625L223.801 276.275C219.064 279.004 213.227 279.004 208.49 276.275Z"
        fill="#FFF9CC" />
    <path fill-rule="evenodd" clip-rule="evenodd"
        d="M180.435 52.1802L141.466 29.7309L102.497 52.1802L102.497 96.9733L141.466 119.423L180.435 96.9733L180.435 52.1802ZM133.81 147.107L82.3432 117.457C77.6058 114.728 74.6875 109.684 74.6875 104.226L74.6875 44.9273C74.6875 39.469 77.6058 34.4254 82.3432 31.6963L133.81 2.04684C138.548 -0.682285 144.384 -0.682277 149.122 2.04684L200.589 31.6963C205.326 34.4254 208.245 39.4691 208.245 44.9273L208.245 104.226C208.245 109.684 205.326 114.728 200.589 117.457L149.122 147.107C144.384 149.836 138.548 149.836 133.81 147.107Z"
        fill="#FFF9CC" />
</svg>