<svg width="24" height="24" viewBox="0 0 24 24" fill="none" xmlns="http://www.w3.org/2000/svg">
<path d="M13.3289 2.10928L16.94 8.3549C17.087 8.60959 17.1267 8.91212 17.0505 9.19603C16.9742 9.47995 16.7882 9.72205 16.5333 9.86916L15.0889 10.7012L16.2011 12.6226L14.2767 13.7319L13.1656 11.8094L11.7222 12.6425C11.467 12.7896 11.1638 12.8295 10.8791 12.7533C10.5945 12.6772 10.3518 12.4913 10.2044 12.2365L8.16223 8.70656C7.43352 8.92738 6.75807 9.29542 6.17781 9.78782C5.59755 10.2802 5.12489 10.8865 4.78916 11.5689C4.45344 12.2514 4.26183 12.9954 4.22623 13.7549C4.19063 14.5144 4.31181 15.2731 4.58223 15.9839C5.47097 15.4201 6.50262 15.1218 7.55556 15.1241C9.42667 15.1241 11.0822 16.0482 12.0889 17.4637L20.6311 12.5394L21.7422 14.4618L12.9889 19.5072C13.1499 20.2563 13.1537 21.0306 13 21.7813L22 21.7802V23.9989L3.11112 24C2.38821 23.0403 1.99816 21.8716 2.00001 20.6709C2.00001 19.5537 2.33112 18.5132 2.90001 17.6423C2.38493 16.6682 2.08324 15.5958 2.01495 14.4964C1.94666 13.397 2.11333 12.2956 2.5039 11.2654C2.89447 10.2352 3.50001 9.29964 4.28035 8.52091C5.06068 7.74218 5.99797 7.13804 7.03 6.74857L6.59334 5.99199C6.29867 5.48241 6.21881 4.87682 6.37134 4.30845C6.52387 3.74009 6.89629 3.25549 7.40667 2.96126L10.2933 1.29724C10.8037 1.00304 11.4103 0.923312 11.9796 1.0756C12.5488 1.22788 13.0342 1.59971 13.3289 2.10928Z" fill="#E3B100"/>
</svg>
