<svg width="24" height="24" viewBox="0 0 24 24" fill="none" xmlns="http://www.w3.org/2000/svg">
<path d="M19.713 8.128L19.467 8.694C19.4286 8.78616 19.3637 8.86489 19.2806 8.92027C19.1975 8.97565 19.0999 9.0052 19 9.0052C18.9001 9.0052 18.8025 8.97565 18.7194 8.92027C18.6363 8.86489 18.5714 8.78616 18.533 8.694L18.287 8.128C17.8545 7.12672 17.0624 6.32392 16.067 5.878L15.308 5.539C15.2159 5.49664 15.1379 5.42877 15.0832 5.34343C15.0286 5.25808 14.9995 5.15885 14.9995 5.0575C14.9995 4.95614 15.0286 4.85691 15.0832 4.77157C15.1379 4.68623 15.2159 4.61836 15.308 4.576L16.025 4.257C17.0454 3.79838 17.8511 2.96588 18.276 1.931L18.529 1.32C18.5662 1.22535 18.631 1.1441 18.715 1.08682C18.799 1.02955 18.8983 0.998917 19 0.998917C19.1017 0.998917 19.201 1.02955 19.285 1.08682C19.369 1.1441 19.4338 1.22535 19.471 1.32L19.724 1.93C20.1485 2.96507 20.9538 3.79793 21.974 4.257L22.692 4.577C22.7838 4.61948 22.8615 4.68734 22.916 4.77257C22.9705 4.8578 22.9994 4.95684 22.9994 5.058C22.9994 5.15915 22.9705 5.25819 22.916 5.34342C22.8615 5.42866 22.7838 5.49652 22.692 5.539L21.932 5.877C20.9368 6.32336 20.1451 7.12652 19.713 8.128ZM15 21.538L9 7.538L6.66 13H1V11H5.34L9 2.461L15 16.461L17.34 11H23V13H18.66L15 21.538Z" fill="#E3B100"/>
</svg>
